Genre:Adventure | Family | Fantasy
Language:English  http://www.imdb.com/title/tt0980970/
Source:DvD9 R5/Audio:IMAGiNE Thx.
Subtitles:Romana


Format : Matroska
File size : 1.01 GiB
Duration : 1h 48mn
Overall bit rate : 1 337 Kbps


Video
Format settings, CABAC : Yes
Format settings, ReFrames : 4 frames
Format settings, GOP : M=4, N=32
Codec ID : V_MPEG4/ISO/AVC
Duration : 1h 48mn
Bit rate : 1 200 Kbps
Width : 720 pixels
Height : 384 pixels
Display aspect ratio : 1.875
Frame rate mode : Variable
Frame rate : 25.000 fps
Color space : YUV
Chroma subsampling : 4:2:0
Bit depth : 8 bits
Scan type : Progressive
Bits/(Pixel*Frame) : 0.174
Stream size : 914 MiB (88%)
Writing library : x264


Audio
ID : 2
Format : MPEG Audio
Format version : Version 1
Format profile : Layer 3
Codec ID : A_MPEG/L3
Codec ID/Hint : MP3
Duration : 1h 48mn
Bit rate mode : Constant
Bit rate : 128 Kbps
Channel(s) : 2 channels
Sampling rate : 44.1 KHz
Video delay : -40ms
Stream size : 98.9 MiB (10%)
Language : English


Plot:
Lucy and Edmund Pevensie return to Narnia with their cousin Eustace where they meet up with Prince Caspian for a trip across the sea aboard the royal ship The Dawn Treader. Along the way they encounter dragons, dwarves, merfolk, and a band of lost warriors before reaching the edge of the world.
 
http://shareimage.org/images/dbwc34uyxyjgxvyrzupt.png 
http://shareimage.org/images/2mxwrzjdr8zphtmnbef.png 
http://shareimage.org/images/niyqah645maplrep64h.png 
http://shareimage.org/images/a7es682oghswcfdlxyi9.png 
http://shareimage.org/images/zbck405wllblm6avmzv.png